<svg width="48" height="48" viewBox="0 0 48 48" fill="none" xmlns="http://www.w3.org/2000/svg">
<path d="M5.19999 7.2C3.49999 8.9 3.49999 35.1 5.19999 36.8C5.89999 37.5 7.69999 38 9.19999 38C11.8 38 12 38.3 12 42V46L15.6 42L19.2 38H30.4C37.8 38 42 37.6 42.8 36.8C44.5 35.1 44.5 8.9 42.8 7.2C41.1 5.5 6.89999 5.5 5.19999 7.2ZM40 22V34H24H7.99999V22V10H24H40V22Z" fill="white"/>
<path d="M14 20C14 23.4 14.3 24 16.1 24H18.1L16 27C13.9 30 13.9 30 15.9 30C18.8 30 22 24.9 22 20.1V16H18H14V20Z" fill="white"/>
<path d="M26 20C26 23.4 26.3 24 28.1 24H30.1L28 27C25.9 30 25.9 30 27.9 30C30.8 30 34 24.9 34 20.1V16H30H26V20Z" fill="white"/>
</svg>
